<?xml version="1.0" standalone="no"?>
<!DOCTYPE svg PUBLIC "-//W3C//DTD SVG 20010904//EN"
 "http://www.w3.org/TR/2001/REC-SVG-20010904/DTD/svg10.dtd">
<svg version="1.0" xmlns="http://www.w3.org/2000/svg"
 width="496.000000pt" height="493.000000pt" viewBox="0 0 496.000000 493.000000"
 preserveAspectRatio="xMidYMid meet">

<g transform="translate(0.000000,493.000000) scale(0.100000,-0.100000)"
fill="#000000" stroke="none">
<path d="M3347 4369 c-105 -25 -202 -104 -248 -203 -106 -226 27 -481 275
-527 76 -14 154 -1 232 39 77 39 125 91 166 177 29 62 33 80 32 150 -1 101
-28 175 -91 245 -95 106 -232 151 -366 119z"/>
<path d="M2785 3783 c-147 -20 -361 -86 -511 -158 -130 -63 -300 -174 -383
-250 -140 -131 -147 -280 -20 -475 21 -32 139 -142 349 -326 l318 -277 -45
-126 c-169 -475 -223 -636 -223 -669 1 -82 70 -170 152 -193 82 -22 187 22
224 93 9 17 86 227 171 467 197 553 196 542 54 672 -38 35 -168 150 -289 254
-121 105 -221 194 -221 198 -2 15 229 115 452 195 l77 28 -55 74 c-67 89 -82
135 -65 197 32 111 165 158 254 89 19 -14 56 -55 82 -91 26 -36 51 -65 55 -65
10 0 29 58 29 90 0 49 -58 148 -111 190 -78 61 -200 96 -294 83z"/>
<path d="M2856 3549 c-35 -27 -56 -70 -56 -112 0 -37 10 -53 254 -377 76 -102
151 -198 165 -213 30 -32 75 -58 469 -261 225 -116 292 -146 323 -146 79 0
129 49 129 126 0 72 -21 90 -252 209 -117 60 -274 141 -348 180 l-135 70 -192
255 c-105 140 -204 263 -220 272 -39 25 -104 23 -137 -3z"/>
<path d="M1671 3015 c-11 -14 -23 -40 -27 -57 -5 -27 -2 -36 20 -55 30 -25
114 -53 162 -53 l33 0 -44 70 c-24 39 -46 82 -49 95 -9 36 -66 35 -95 0z"/>
<path d="M4208 2958 c-8 -13 -18 -32 -24 -42 -6 -11 -23 -29 -38 -40 -24 -18
-45 -21 -162 -24 -74 -2 -134 -7 -134 -11 0 -12 149 -81 175 -81 13 0 34 -5
47 -11 22 -9 32 -22 84 -107 14 -22 24 -30 29 -22 13 21 8 106 -8 137 -16 30
-16 30 21 54 50 32 89 110 74 145 -14 30 -47 31 -64 2z"/>
<path d="M1991 2710 c3 -8 16 -45 29 -82 l23 -67 -28 -53 c-124 -227 -224
-393 -236 -391 -8 1 -46 14 -86 28 -465 164 -975 -175 -1009 -674 -14 -189 54
-399 174 -541 l30 -35 21 25 c27 33 26 46 -4 82 -74 87 -130 239 -142 378 -16
199 82 423 247 564 70 61 215 130 305 147 131 24 311 7 400 -38 l34 -18 -98
-175 c-53 -97 -111 -201 -129 -231 l-32 -56 39 -15 38 -15 103 186 c121 217
148 261 158 261 4 0 31 -19 59 -43 77 -62 159 -171 194 -256 30 -72 63 -217
53 -233 -3 -4 -115 -5 -249 -1 -145 4 -245 2 -245 -3 0 -5 14 -25 29 -44 l29
-35 219 -3 219 -4 -9 -62 c-11 -75 -57 -196 -97 -256 -16 -25 -30 -49 -30 -55
1 -13 36 -55 47 -55 11 0 77 104 107 170 23 51 44 129 60 223 6 31 11 37 31
37 14 0 25 2 25 3 0 7 -34 72 -40 77 -3 3 -15 53 -27 112 -35 181 -129 338
-268 451 -33 27 -60 56 -59 65 0 10 47 100 104 201 80 142 105 179 111 165 4
-11 57 -148 118 -306 61 -158 111 -292 111 -298 0 -5 4 -10 8 -10 5 0 16 26
26 58 l17 57 -107 275 c-58 151 -108 281 -111 288 -4 8 7 12 33 12 l39 1 -30
25 c-16 14 -58 51 -93 81 -93 82 -117 100 -111 83z"/>
<path d="M3515 2620 c4 -7 -105 -10 -319 -10 -195 0 -326 -4 -326 -9 0 -5 20
-26 45 -47 l45 -36 295 3 296 4 34 -85 c19 -47 35 -91 35 -98 0 -7 -188 -162
-418 -346 l-418 -333 -23 -62 c-12 -35 -21 -65 -18 -67 2 -2 28 15 58 39 344
280 853 677 859 670 15 -16 51 -128 43 -130 -43 -15 -151 -91 -208 -148 -89
-88 -141 -166 -182 -276 -125 -332 -7 -704 286 -904 72 -49 85 -51 129 -17
l24 19 -74 43 c-207 123 -332 344 -332 590 0 184 58 329 185 464 74 78 195
164 210 148 4 -4 51 -117 104 -252 53 -135 108 -276 124 -314 30 -77 51 -97
79 -80 9 6 18 18 20 26 2 8 -53 158 -122 333 -69 175 -123 321 -121 326 9 14
119 31 205 32 116 0 189 -17 295 -68 180 -87 295 -218 361 -410 25 -71 28 -94
28 -205 -1 -108 -4 -136 -27 -205 -49 -149 -147 -282 -266 -360 -33 -22 -61
-43 -61 -47 0 -3 14 -15 32 -26 29 -19 35 -19 60 -6 40 21 154 130 198 190 53
70 96 160 122 251 29 102 31 295 4 392 -61 223 -199 392 -403 495 -148 74
-314 100 -463 71 -47 -9 -94 -17 -105 -18 -16 -2 -32 31 -105 212 l-85 213
-45 24 c-49 25 -64 29 -55 14z"/>
<path d="M3788 2473 c-10 -2 -21 -16 -24 -30 -10 -40 18 -56 86 -48 99 11 101
14 30 51 -36 18 -67 33 -70 32 -3 0 -13 -2 -22 -5z"/>
<path d="M1442 1513 c-7 -3 -122 -145 -257 -316 -134 -172 -292 -372 -350
-446 -91 -117 -105 -139 -105 -172 0 -63 66 -100 116 -64 12 8 109 125 215
261 107 136 242 308 301 383 59 75 112 136 118 136 7 0 148 -173 314 -385 166
-212 314 -392 329 -400 33 -18 72 -6 100 32 28 38 19 60 -71 174 -43 54 -200
255 -350 445 -149 191 -279 349 -288 353 -18 7 -53 7 -72 -1z m56 -72 c20 -12
11 -55 -12 -59 -27 -6 -48 25 -35 49 10 20 26 24 47 10z m-660 -852 c3 -28
-16 -43 -43 -33 -15 6 -21 45 -8 58 16 16 48 1 51 -25z m1340 -1 c2 -20 -2
-28 -19 -33 -30 -10 -53 19 -38 47 15 29 53 20 57 -14z"/>
<path d="M514 1010 c-90 -51 -128 -163 -85 -255 43 -92 146 -144 238 -119 12
3 51 44 88 91 66 83 67 85 63 134 -14 145 -175 224 -304 149z m193 -94 c97
-106 -38 -264 -158 -183 -19 13 -40 39 -48 61 -13 33 -13 44 0 79 32 93 140
115 206 43z"/>
<path d="M590 887 c-31 -15 -40 -76 -15 -97 24 -20 67 -15 87 10 24 30 23 46
-7 75 -28 29 -31 29 -65 12z"/>
<path d="M3954 815 c-86 -19 -185 -70 -253 -132 -33 -29 -66 -53 -74 -53 -8 0
-25 -8 -37 -18 -19 -16 -21 -22 -11 -40 l12 -22 479 0 c467 0 480 0 490 20 8
15 6 24 -10 40 -11 11 -27 20 -36 20 -9 0 -42 24 -75 53 -132 120 -313 169
-485 132z m336 -165 c0 -6 -80 -10 -220 -10 -140 0 -220 4 -220 10 0 6 80 10
220 10 140 0 220 -4 220 -10z"/>
<path d="M1760 805 c-52 -30 -184 -66 -269 -71 -94 -7 -196 9 -292 46 l-54 20
-22 -25 c-13 -15 -23 -30 -23 -34 0 -14 120 -58 203 -75 145 -30 300 -14 442
45 104 43 103 43 83 76 -20 34 -35 37 -68 18z"/>
</g>
</svg>
